<svg width="990" height="370" viewBox="0 0 990 370" fill="none" xmlns="http://www.w3.org/2000/svg">
<path d="M300.469 283.658V116.91H358.011V140.976H358.642C359.047 140.142 359.745 139.06 360.713 137.731C361.726 136.424 363.864 134.126 367.106 130.881C370.348 127.636 373.792 124.729 377.462 122.138C381.109 119.569 385.859 117.248 391.69 115.197C397.566 113.102 403.532 112.043 409.61 112.043C415.913 112.043 422.059 112.922 428.07 114.657C434.126 116.414 438.561 118.149 441.398 119.884L445.99 122.408L421.947 171.171C414.788 165.109 404.837 162.067 392.05 162.067C385.139 162.067 379.195 163.599 374.22 166.664C369.222 169.683 365.688 173.379 363.594 177.75C361.546 182.077 360.105 185.772 359.272 188.837C358.416 191.856 358.011 194.2 358.011 195.867V283.658H300.469Z" fill="#10345D"/>
<path d="M606.005 137.731C621.606 154.856 629.418 175.767 629.418 200.464C629.418 225.161 621.606 246.027 606.005 263.017C590.448 280.03 570.637 288.525 546.572 288.525C524.532 288.525 506.364 280.638 492.091 264.82H491.371V283.658H434.549V4.15231H492.091V132.864C506.364 118.983 524.532 112.043 546.572 112.043C570.637 112.043 590.448 120.605 606.005 137.731ZM557.648 228.586C564.784 221.33 568.364 211.956 568.364 200.464C568.364 188.995 564.604 179.598 557.107 172.252C549.656 164.861 540.403 161.166 529.372 161.166C518.566 161.166 509.403 164.861 501.907 172.252C494.455 179.598 490.741 188.995 490.741 200.464C490.741 211.708 494.365 221.015 501.637 228.406C508.886 235.797 518.138 239.492 529.372 239.492C541.079 239.492 550.489 235.864 557.648 228.586Z" fill="#10345D"/>
<path d="M797.266 208.216H676.419C676.419 219.933 680.201 228.631 687.766 234.264C695.375 239.92 703.637 242.737 712.529 242.737C721.827 242.737 729.189 241.52 734.592 239.042C739.995 236.518 746.14 231.56 753.052 224.169L794.655 244.99C777.365 274.014 748.572 288.525 708.297 288.525C683.195 288.525 661.651 279.94 643.641 262.747C625.676 245.509 616.716 224.755 616.716 200.464C616.716 176.196 625.676 155.397 643.641 138.092C661.651 120.741 683.195 112.043 708.297 112.043C734.704 112.043 756.159 119.682 772.683 134.937C789.252 150.215 797.537 172.049 797.537 200.464C797.537 204.385 797.447 206.954 797.266 208.216ZM678.04 176.398H741.435C740.107 167.746 736.685 161.121 731.17 156.479C725.632 151.792 718.563 149.448 709.918 149.448C700.373 149.448 692.763 151.95 687.135 156.93C681.552 161.932 678.513 168.422 678.04 176.398Z" fill="#10345D"/>
<path d="M989.751 283.658H920.322L883.582 236.518L846.931 283.658H777.413L848.552 196.588L787.498 116.91H854.676L883.582 155.577L912.488 116.91H979.755L918.701 196.588L989.751 283.658Z" fill="#10345D"/>
<path d="M0 147.82C0 106.538 14.0478 71.6114 42.1434 42.9939C70.2841 14.3313 104.21 0 143.9 0C183.747 0 217.606 14.2862 245.476 42.8136C273.392 71.296 287.35 106.313 287.35 147.82C287.35 189.597 273.617 224.749 246.197 253.276C218.754 281.759 184.648 296 143.9 296C102.162 296 67.7402 281.894 40.6126 253.637C13.53 225.335 0 190.07 0 147.82ZM70.2391 147.82C70.2391 162.85 72.5128 176.55 77.0829 188.921C81.6979 201.247 89.7799 211.68 101.306 220.197C112.833 228.738 127.016 232.996 143.9 232.996C168.078 232.996 186.336 224.704 198.65 208.119C211.01 191.49 217.201 171.39 217.201 147.82C217.201 124.52 210.897 104.51 198.29 87.7905C185.728 71.0256 167.606 62.6431 143.9 62.6431C120.352 62.6431 102.207 71.0256 89.4197 87.7905C76.6326 104.51 70.2391 124.52 70.2391 147.82Z" fill="#10345D"/>
<path d="M194.053 337.291V349.688H210.899V353.312H194.053V369.237H189.625V333.667H212.921V337.291H194.053Z" fill="#666666"/>
<path d="M269.445 333C273.103 333 276.183 333.811 278.686 335.384C281.237 336.981 283.162 339.151 284.462 341.869C285.737 344.61 286.387 347.829 286.387 351.5C286.387 355.076 285.737 358.247 284.462 361.036C283.162 363.849 281.237 366.043 278.686 367.616C276.183 369.213 273.103 370 269.445 370C265.835 370 262.754 369.213 260.203 367.616C257.7 366.043 255.775 363.849 254.427 361.036C253.128 358.247 252.502 355.076 252.502 351.5C252.502 347.829 253.128 344.61 254.427 341.869C255.775 339.151 257.7 336.981 260.203 335.384C262.754 333.811 265.835 333 269.445 333ZM269.445 366.472C273.223 366.472 276.183 365.137 278.301 362.466C280.419 359.749 281.478 356.077 281.478 351.5C281.478 346.875 280.419 343.204 278.301 340.534C276.183 337.863 273.223 336.528 269.445 336.528C265.714 336.528 262.802 337.863 260.684 340.534C258.567 343.204 257.508 346.875 257.508 351.5C257.508 356.077 258.567 359.749 260.684 362.466C262.802 365.137 265.714 366.472 269.445 366.472Z" fill="#666666"/>
<path d="M353.386 359.892C353.579 362.18 353.819 364.087 354.156 365.613C354.541 367.091 355.071 368.283 355.793 369.237H350.883C350.354 368.093 349.945 366.901 349.632 365.613C349.367 364.278 349.15 362.538 348.958 360.368C348.693 358.533 348.188 357.031 347.418 355.886C346.648 354.742 345.348 354.122 343.567 353.979C343.182 353.979 342.749 353.979 342.316 353.979C341.858 353.979 341.449 353.979 341.064 353.979H334.23V369.237H329.801V333.667H341.546C342.436 333.667 343.23 333.715 343.952 333.763C344.65 333.763 345.42 333.834 346.263 333.953C348.814 334.287 350.931 335.193 352.616 336.719C354.349 338.197 355.215 340.414 355.215 343.394C355.215 344.92 354.878 346.255 354.252 347.399C353.675 348.544 352.857 349.497 351.846 350.26C350.883 350.975 349.848 351.476 348.765 351.786C350.233 352.43 351.316 353.502 352.038 355.028C352.809 356.506 353.242 358.127 353.386 359.892ZM334.23 350.356H341.161C341.931 350.356 342.556 350.356 343.086 350.356C343.591 350.308 344.097 350.26 344.626 350.26C346.287 350.069 347.658 349.473 348.765 348.448C349.848 347.375 350.402 345.826 350.402 343.776C350.402 341.821 349.921 340.343 348.958 339.389C348.043 338.388 346.768 337.744 345.107 337.482C344.265 337.363 343.086 337.291 341.546 337.291H334.23V350.356Z" fill="#666666"/>
<path d="M469.466 365.613V369.237H445.592V333.667H450.021V365.613H469.466Z" fill="#666666"/>
<path d="M525.828 333C529.486 333 532.566 333.811 535.069 335.384C537.62 336.981 539.545 339.151 540.845 341.869C542.12 344.61 542.77 347.829 542.77 351.5C542.77 355.076 542.12 358.247 540.845 361.036C539.545 363.849 537.62 366.043 535.069 367.616C532.566 369.213 529.486 370 525.828 370C522.218 370 519.137 369.213 516.586 367.616C514.083 366.043 512.158 363.849 510.811 361.036C509.511 358.247 508.885 355.076 508.885 351.5C508.885 347.829 509.511 344.61 510.811 341.869C512.158 339.151 514.083 336.981 516.586 335.384C519.137 333.811 522.218 333 525.828 333ZM525.828 366.472C529.606 366.472 532.566 365.137 534.684 362.466C536.802 359.749 537.861 356.077 537.861 351.5C537.861 346.875 536.802 343.204 534.684 340.534C532.566 337.863 529.606 336.528 525.828 336.528C522.097 336.528 519.185 337.863 517.068 340.534C514.95 343.204 513.891 346.875 513.891 351.5C513.891 356.077 514.95 359.749 517.068 362.466C519.185 365.137 522.097 366.472 525.828 366.472Z" fill="#666666"/>
<path d="M601.683 352.072H614.582V369.237H610.635V363.039L608.999 366.376C607.964 367.521 606.64 368.427 605.052 369.046C603.512 369.666 601.707 370 599.661 370C596.196 370 593.236 369.213 590.805 367.616C588.422 365.971 586.593 363.778 585.318 361.036C584.018 358.247 583.393 355.1 583.393 351.595C583.393 348.043 584.09 344.872 585.51 342.059C586.906 339.198 588.88 336.981 591.382 335.384C593.933 333.811 596.918 333 600.335 333C603.415 333 605.966 333.548 608.036 334.621C610.154 335.646 611.742 337.053 612.849 338.817C614.005 340.605 614.702 342.679 614.967 345.015L615.063 345.588H610.539L610.443 345.015C609.913 342.488 608.83 340.438 607.17 338.912C605.557 337.339 603.247 336.528 600.239 336.528C597.856 336.528 595.762 337.172 593.982 338.436C592.177 339.723 590.805 341.487 589.842 343.776C588.88 346.017 588.398 348.544 588.398 351.405C588.398 354.337 588.831 356.936 589.746 359.224C590.709 361.465 592.056 363.229 593.789 364.564C595.522 365.852 597.567 366.472 599.95 366.472C601.875 366.472 603.608 366.043 605.148 365.137C606.688 364.183 607.868 362.919 608.71 361.322C609.6 359.677 610.058 357.794 610.058 355.696H601.683V352.072Z" fill="#666666"/>
<path d="M663.721 369.237H659.288V333.667H663.721V369.237Z" fill="#666666"/>
<path d="M720.369 333C722.8 333 724.846 333.453 726.53 334.335C728.263 335.241 729.611 336.505 730.573 338.149C731.536 339.747 732.114 341.559 732.306 343.585H727.589C727.325 341.296 726.554 339.556 725.279 338.34C723.979 337.148 722.223 336.528 719.984 336.528C718.059 336.528 716.423 336.981 715.075 337.863C713.775 338.769 713.15 340.128 713.15 341.964C713.15 343.871 713.727 345.349 714.882 346.351C716.086 347.304 718.083 348.115 720.851 348.735C724.822 349.64 727.782 350.928 729.707 352.644C731.681 354.361 732.691 356.721 732.691 359.701C732.691 361.799 732.138 363.611 731.055 365.137C729.948 366.662 728.48 367.878 726.627 368.76C724.749 369.571 722.68 370 720.369 370C716.447 370 713.27 369.046 710.839 367.139C708.457 365.232 707.085 362.562 706.7 359.129H711.513C712.019 361.489 713.053 363.301 714.594 364.564C716.182 365.852 718.155 366.472 720.466 366.472C722.511 366.472 724.244 365.971 725.664 364.946C727.132 363.873 727.878 362.419 727.878 360.559C727.878 358.414 727.204 356.745 725.857 355.601C724.509 354.456 722.247 353.55 719.118 352.835C717 352.334 715.123 351.691 713.535 350.928C711.922 350.117 710.647 349.068 709.684 347.781C708.77 346.517 708.336 344.92 708.336 343.013C708.336 340.915 708.866 339.151 709.973 337.673C711.056 336.147 712.5 335.003 714.305 334.24C716.158 333.429 718.179 333 720.369 333Z" fill="#666666"/>
<path d="M802.376 337.291H789.669V369.237H785.145V337.291H772.341V333.667H802.376V337.291Z" fill="#666666"/>
<path d="M848.248 369.237H843.815V333.667H848.248V369.237Z" fill="#666666"/>
<path d="M907.881 333C910.961 333 913.512 333.548 915.582 334.621C917.699 335.646 919.288 337.053 920.395 338.817C921.55 340.605 922.248 342.679 922.513 345.015L922.609 345.588H918.085L917.988 345.015C917.459 342.488 916.376 340.438 914.715 338.912C913.103 337.339 910.793 336.528 907.784 336.528C905.402 336.528 903.308 337.172 901.527 338.436C899.722 339.723 898.35 341.487 897.388 343.776C896.425 346.017 895.944 348.544 895.944 351.405C895.944 354.337 896.377 356.936 897.292 359.224C898.254 361.465 899.602 363.229 901.335 364.564C903.067 365.852 905.113 366.472 907.495 366.472C910.504 366.472 912.814 365.685 914.427 364.088C916.087 362.514 917.17 360.44 917.699 357.889L917.796 357.412H922.224V357.889C922.031 360.059 921.309 362.061 920.106 363.897C918.951 365.685 917.314 367.139 915.197 368.284C913.079 369.428 910.407 370 907.207 370C903.741 370 900.781 369.213 898.35 367.616C895.968 365.971 894.139 363.778 892.863 361.036C891.564 358.247 890.938 355.1 890.938 351.595C890.938 348.043 891.636 344.872 893.056 342.059C894.452 339.198 896.425 336.981 898.928 335.384C901.479 333.811 904.463 333 907.881 333Z" fill="#666666"/>
<path d="M977.428 333C979.859 333 981.905 333.453 983.589 334.335C985.322 335.241 986.67 336.505 987.632 338.149C988.595 339.747 989.172 341.559 989.365 343.585H984.648C984.383 341.296 983.613 339.556 982.338 338.34C981.038 337.148 979.281 336.528 977.043 336.528C975.118 336.528 973.481 336.981 972.134 337.863C970.834 338.769 970.208 340.128 970.208 341.964C970.208 343.871 970.786 345.349 971.941 346.351C973.145 347.304 975.142 348.115 977.91 348.735C981.88 349.64 984.841 350.928 986.766 352.644C988.739 354.361 989.75 356.721 989.75 359.701C989.75 361.799 989.197 363.611 988.114 365.137C987.007 366.662 985.538 367.878 983.685 368.76C981.808 369.571 979.739 370 977.428 370C973.505 370 970.329 369.046 967.898 367.139C965.516 365.232 964.144 362.562 963.759 359.129H968.572C969.077 361.489 970.112 363.301 971.652 364.564C973.241 365.852 975.214 366.472 977.525 366.472C979.57 366.472 981.303 365.971 982.723 364.946C984.191 363.873 984.937 362.419 984.937 360.559C984.937 358.414 984.263 356.745 982.915 355.601C981.568 354.456 979.305 353.55 976.177 352.835C974.059 352.334 972.182 351.691 970.594 350.928C968.981 350.117 967.706 349.068 966.743 347.781C965.828 346.517 965.395 344.92 965.395 343.013C965.395 340.915 965.925 339.151 967.032 337.673C968.115 336.147 969.559 335.003 971.364 334.24C973.217 333.429 975.238 333 977.428 333Z" fill="#666666"/>
<mask id="mask0_2_282" style="mask-type:luminance" maskUnits="userSpaceOnUse" x="841" y="0" width="88" height="50">
<path d="M841.451 0H928.063V49.1888H841.451V0Z" fill="white"/>
</mask>
<g mask="url(#mask0_2_282)">
<path d="M926.613 24.2089C926.613 23.3658 926.25 22.7154 925.501 22.2818L887.318 0.313052C886.569 -0.120545 885.82 -0.120545 885.071 0.313052L846.888 22.2818C846.139 22.7154 845.777 23.3658 845.777 24.2089C845.777 25.0761 846.139 25.7265 846.888 26.1601L885.071 48.1288C885.82 48.5865 886.569 48.5865 887.318 48.1288L925.501 26.1601C926.25 25.7265 926.613 25.0761 926.613 24.2089Z" fill="#F36500"/>
</g>
<mask id="mask1_2_282" style="mask-type:luminance" maskUnits="userSpaceOnUse" x="837" y="36" width="48" height="71">
<path d="M837.125 36.8555H884.757V106.375H837.125V36.8555Z" fill="white"/>
</mask>
<g mask="url(#mask1_2_282)">
<path d="M879.729 59.4023L841.547 37.4336C840.773 37 840.024 37 839.275 37.4336C838.526 37.8672 838.163 38.5176 838.163 39.3848V83.3223C838.163 84.1894 838.526 84.8398 839.275 85.2734L877.458 107.242C878.207 107.676 878.956 107.676 879.729 107.242C880.454 106.809 880.841 106.158 880.841 105.291V61.3535C880.841 60.4863 880.478 59.8359 879.729 59.4023Z" fill="#F36500"/>
</g>
<mask id="mask2_2_282" style="mask-type:luminance" maskUnits="userSpaceOnUse" x="890" y="36" width="45" height="71">
<path d="M890.944 36.8555H934.25V106.375H890.944V36.8555Z" fill="white"/>
</mask>
<g mask="url(#mask2_2_282)">
<path d="M933.089 37.4336C932.34 37 931.591 37 930.842 37.4336L892.659 59.4264C891.91 59.8359 891.547 60.4863 891.547 61.3535V105.315C891.547 105.917 891.765 106.447 892.2 106.881C892.659 107.339 893.191 107.555 893.795 107.555C894.206 107.555 894.568 107.459 894.931 107.242L933.089 85.2493C933.838 84.8398 934.225 84.1895 934.225 83.3223V39.3848C934.225 38.5176 933.838 37.8672 933.089 37.4336Z" fill="#F36500"/>
</g>
</svg>
