<svg xmlns="http://www.w3.org/2000/svg" viewBox="0 0 604.26 216.15"><defs><style>.cls-1{fill:#262d4d;}.cls-2{fill:#e12327;}.cls-3{fill:#767678;}</style></defs><g id="Layer_2" data-name="Layer 2"><g id="Layer_1-2" data-name="Layer 1"><path class="cls-1" d="M17.09,153.49l24.75-3.41.14-1.84c-2.37-.56-4.74-1.55-7.12-1.59-11.58-.17-23.17-.07-34.86-1.24l30.61-4.19c-4.05-4.62-8.28-8.78-11.74-13.5C-10,88.19.36,35.57,42.77,11,88.69-15.63,149,9.15,160.36,64.55c9.22,44.91-21.53,86.51-65.29,94.48a64.79,64.79,0,0,1-30.17-1.26c-12.3-3.66-25-2.75-37.61-3.21-3.32-.12-6.65,0-10,0ZM82.23,19.75c-31.28-.61-59.9,25.54-59.79,60s25.77,59.66,60.28,59.69A58.9,58.9,0,0,0,142.29,80C142,46.38,115.74,19.75,82.23,19.75Z"/><path class="cls-2" d="M408.08,161.1c-13.82,0-27.65,0-41.48,0-5.82,0-6.57-.71-5.66-6.38,4-24.6,8.08-49.17,12.13-73.76C374.88,70,376.8,59,378.42,48c.64-4.42,2.6-6.31,7.18-6.29q41.47.16,83,0c4.2,0,5.3,1.57,4.66,5.37s-1,7.57-1.58,11.33c-1.27,7.78-3.57,9.57-11.32,9.37-14.63-.37-29.27-.73-43.91-1-8-.13-8.51.45-9.91,8.45-2.05,11.66-1.3,12.59,10.63,12.64,11.66,0,23.32,0,35,0,5.27,0,6.11,1,5.24,6.3-.63,3.78-1.35,7.54-2,11.31-.76,4.5-3.3,6.51-7.94,6.48-13.82-.11-27.65.1-41.48,0-3.95,0-6.19.65-6.3,5.31-.1,4.28-1.26,8.53-1.89,12.81-.56,3.82,1.28,5.65,5,5.62,16.32-.12,32.65-.15,49-.48,7.46-.15,8.28.48,7,7.64A100.1,100.1,0,0,0,457,154.71c-.26,5-2.78,6.45-7.43,6.4-13.83-.17-27.66-.06-41.49-.06Z"/><path class="cls-1" d="M243.5,57.12c0-14.16,0-28.32,0-42.48a35.7,35.7,0,0,1,.54-6.45c1-5.3,4.48-8.35,9.09-8.18,4.8.17,8.55,3.76,9.18,9a41.52,41.52,0,0,1,.1,5c.07,27.49,0,55,.22,82.47.07,10.63,2,20.78,8.74,29.57,9.88,12.83,27.5,17.93,44.48,12.55,14.25-4.5,24.79-19.8,25.63-35.37,1.22-22.91-17.45-41.59-39.59-40.37a34.51,34.51,0,0,1-7-.29c-5.47-.83-8.67-4.45-8.52-9.33a9.66,9.66,0,0,1,8.75-9.33c33.7-2.72,61.16,16.77,65.55,51.08,3.38,26.49-13.21,56.65-44.6,63.79-33.23,7.56-67.71-12.6-71.59-49.7-1.78-17.12-.3-34.59-.3-51.9Z"/><path class="cls-2" d="M604.26,41.81,561.52,90.86c4.11,0,7,.09,9.78,0,4.06-.16,6.43,1.84,6.75,5.7.28,3.49-1.81,5.63-5.29,6a66.73,66.73,0,0,1-8.92.61c-29.81-.47-59.61-1-89.51-2.42l35.08-4.55c-9.37-18.51-18.25-36-27.57-54.48,12.08,0,23.17-.11,34.25.14,1.31,0,3,1.84,3.79,3.24,4.27,7.71,8.27,15.58,12.45,23.35,3.16,5.89,6,6.28,10.61,1.37,7.91-8.34,15.68-16.81,23.57-25.15,1.09-1.15,2.56-2.72,3.88-2.75C581.14,41.71,591.9,41.81,604.26,41.81Z"/><path class="cls-1" d="M530.24,122.58c-7.27,9.12-14,17.11-20.23,25.51-7.09,9.62-16.31,14.28-28.2,14-6.6-.13-13.22,0-19.83,0-.18-.61-.37-1.21-.56-1.81l29.33-32.93c-10.79-2.1-21.26.83-30.66-3.67,10.33-.76,20.65-1.68,31-2.19,3.9-.18,6.71-1.55,8.71-4.75,3.87-6.22,9.39-7.8,16.57-7.44,11.63.58,23.32.34,35,0,5.39-.19,8.46,1.64,11,6.43,8,14.94,16.42,29.63,25,45a36,36,0,0,1-4.18.53c-9.33,0-18.66-.09-28,.09-3.5.07-5.39-1.28-6.9-4.41-4.61-9.57-9.52-19-14.37-28.46C533.05,126.73,531.89,125.18,530.24,122.58Z"/><path class="cls-1" d="M172.45,118c0-9.66,0-19.31,0-29a44.21,44.21,0,0,1,40.82-44.25,94.16,94.16,0,0,1,16.79,0c4.71.45,8.19,4.64,7.93,8.76a9.08,9.08,0,0,1-7.52,8.8,43.57,43.57,0,0,1-10.41.64c-15.5-.46-28.68,10.57-28.26,27.34.47,18.46,0,36.94-.08,55.41a36.86,36.86,0,0,1-.3,5.47c-1,6.26-4.86,9.61-10.38,9.13-5.11-.44-8.52-4.42-8.57-10.41C172.38,139.27,172.44,128.61,172.45,118Z"/><path class="cls-2" d="M109,123.86q24.09-24,15.59-56.9C134.56,85.22,126.45,115,109,123.86Z"/><path class="cls-2" d="M130.56,104.85C138,83.11,134.31,63.65,118.15,46,135.6,57.36,142.25,85.38,130.56,104.85Z"/><path class="cls-3" d="M64.13,208.79v-9a1.26,1.26,0,0,0-.17-.65l-8.62-14.86h3.71c2.23,4,5.78,10.3,6.89,12.45,1.06-2.12,4.72-8.48,7-12.45h3.47l-8.9,14.92a1.1,1.1,0,0,0-.14.62v9Z"/><path class="cls-3" d="M95.12,199.83c0,5.14-2.94,9.38-8.4,9.38-5.11,0-8.21-4-8.21-9.32s3-9.38,8.41-9.38C91.88,190.51,95.12,194.23,95.12,199.83Zm-13.43,0c0,3.92,2,6.77,5.16,6.77s5.1-2.71,5.1-6.76-1.83-6.78-5.17-6.78S81.69,195.79,81.69,199.86Z"/><path class="cls-3" d="M115.93,203.59c0,1.73,0,4.14,0,5.2h-3a26.09,26.09,0,0,1-.12-2.68c-.87,2-2.59,3.1-5.4,3.1-3,0-5.9-1.5-5.9-6.53V190.94h3.06V202c0,2.34.73,4.5,3.69,4.5,3.29,0,4.55-1.81,4.55-6.27v-9.31h3.08Z"/><path class="cls-3" d="M123.68,195.79c0-2.5,0-3.9,0-4.85h3c0,.5.1,1.9.1,3.64a6.32,6.32,0,0,1,6-4.07v3.08c-3.66.11-6,2-6,6.53v8.67h-3.08Z"/><path class="cls-3" d="M150.49,184.29h9.3c4.77,0,8,2.67,8,7.13,0,4.77-3.44,7.3-8.23,7.3h-5.83v10.07h-3.27Zm3.27,11.7h5.67c3.36,0,5-1.64,5-4.49s-2-4.47-4.91-4.47h-5.8Z"/><path class="cls-3" d="M187.91,204.89a26.94,26.94,0,0,0,.25,3.9h-2.95a9.64,9.64,0,0,1-.29-2.34c-.63,1.19-2,2.76-5.52,2.76-4.2,0-6-2.74-6-5.46,0-4,3.13-5.8,8.43-5.8h3v-1.52c0-1.58-.51-3.5-3.85-3.5-3,0-3.48,1.48-3.8,2.87h-3c.24-2.46,1.76-5.3,6.89-5.29,4.36,0,6.78,1.79,6.78,5.85Zm-3-4.8H182c-3.56,0-5.46,1-5.46,3.5a3.13,3.13,0,0,0,3.47,3.2c4.3,0,4.88-2.89,4.88-6.13Z"/><path class="cls-3" d="M209.68,203.33c-.75,3.07-2.83,5.88-7.37,5.88-4.92,0-8-3.54-8-9.25,0-5.05,2.85-9.45,8.18-9.45,5.14,0,6.92,3.67,7.15,6h-3.05a4,4,0,0,0-4.16-3.39c-3.16,0-4.95,2.71-4.95,6.76s1.74,6.79,4.84,6.79c2.23,0,3.53-1.18,4.26-3.31Z"/><path class="cls-3" d="M219,199.46c1.51-1.76,5.43-5.89,7.85-8.52h3.67l-6.72,6.95,7.49,10.9h-3.6l-6-8.92L219,202.46v6.33h-3.08V182.94H219Z"/><path class="cls-3" d="M249.62,204.89a29,29,0,0,0,.24,3.9h-3a10.19,10.19,0,0,1-.29-2.34c-.62,1.19-2.05,2.76-5.51,2.76-4.21,0-6-2.74-6-5.46,0-4,3.13-5.8,8.43-5.8h3v-1.52c0-1.58-.5-3.5-3.84-3.5-3,0-3.48,1.48-3.81,2.87h-3c.24-2.46,1.76-5.3,6.89-5.29,4.36,0,6.78,1.79,6.78,5.85Zm-3-4.8h-2.89c-3.56,0-5.47,1-5.47,3.5a3.14,3.14,0,0,0,3.48,3.2c4.3,0,4.88-2.89,4.88-6.13Z"/><path class="cls-3" d="M272.11,207.18c0,5.72-2.36,9-8.19,9-5.41,0-7.07-3-7.39-5.45h3.14c.52,2,2.09,3,4.39,3,4.05,0,5.05-2.57,5.05-6.68v-1.44c-.95,2-2.58,3.13-5.58,3.13-4.39,0-7.38-3.58-7.38-8.81,0-5.83,3.39-9.38,7.71-9.38,3.4,0,4.85,1.61,5.25,2.79,0-.81.11-2,.15-2.36h2.91c0,1-.06,3.44-.06,5.15Zm-12.76-7.43c0,3.77,1.95,6.32,4.87,6.32,3.85,0,5-2.58,5-6.55s-1.06-6.39-4.87-6.39C261,193.13,259.35,195.89,259.35,199.75Z"/><path class="cls-3" d="M281.67,200.42c0,3.63,1.85,6.21,4.88,6.21a4.1,4.1,0,0,0,4.31-2.76H294c-.7,2.29-2.62,5.34-7.51,5.34-5.61,0-7.9-4.56-7.9-9.16,0-5.31,2.67-9.54,8.1-9.54,5.75,0,7.64,4.62,7.64,8.43a14.06,14.06,0,0,1-.05,1.48Zm9.51-2.17c0-2.94-1.52-5.3-4.57-5.3s-4.52,2.19-4.83,5.3Z"/><path class="cls-3" d="M299.48,212.83a25.14,25.14,0,0,0,2.51-9.22h3.13a20.61,20.61,0,0,1-3.12,9.22Z"/><path class="cls-3" d="M344.79,196.4c0,6.74-3.78,12.74-11.49,12.74-7.21,0-11.23-5.57-11.23-12.6s4.1-12.6,11.51-12.6C340.48,183.94,344.79,189.12,344.79,196.4Zm-19.32,0c0,5.29,2.71,9.93,8,9.93,5.69,0,7.95-4.69,7.95-9.92s-2.57-9.74-7.94-9.74C327.9,186.71,325.47,191.21,325.47,196.44Z"/><path class="cls-3" d="M366.07,203.59c0,1.73,0,4.14,0,5.2h-3a23.46,23.46,0,0,1-.12-2.68c-.88,2-2.6,3.1-5.41,3.1-3,0-5.9-1.5-5.9-6.53V190.94h3.06V202c0,2.34.74,4.5,3.7,4.5,3.28,0,4.55-1.81,4.55-6.27v-9.31h3.08Z"/><path class="cls-3" d="M373.82,195.79c0-2.5,0-3.9,0-4.85h3c.05.5.1,1.9.1,3.64a6.32,6.32,0,0,1,6-4.07v3.08c-3.66.11-6,2-6,6.53v8.67h-3.08Z"/><path class="cls-3" d="M400.63,184.29h9.3c4.76,0,8,2.67,8,7.13,0,4.77-3.43,7.3-8.22,7.3H403.9v10.07h-3.27ZM403.9,196h5.67c3.35,0,5-1.64,5-4.49s-2-4.47-4.9-4.47h-5.8Z"/><path class="cls-3" d="M425,195.79c0-2.5,0-3.9,0-4.85h3c0,.5.09,1.9.09,3.64a6.33,6.33,0,0,1,6-4.07v3.08c-3.66.11-6,2-6,6.53v8.67H425Z"/><path class="cls-3" d="M455,199.83c0,5.14-3,9.38-8.4,9.38-5.12,0-8.21-4-8.21-9.32s3-9.38,8.41-9.38C451.73,190.51,455,194.23,455,199.83Zm-13.44,0c0,3.92,2,6.77,5.16,6.77s5.11-2.71,5.11-6.76-1.83-6.78-5.18-6.78S441.54,195.79,441.54,199.86Z"/><path class="cls-3" d="M461.46,195.54c0-1.54,0-3.16,0-4.6h3c.05.53.13,1.85.12,2.74a5.53,5.53,0,0,1,5.19-3.17,4.89,4.89,0,0,1,4.94,3.2,6.1,6.1,0,0,1,5.69-3.2c2.9,0,5.63,1.72,5.63,6.55v11.73h-3V197.43c0-2.07-.75-4.26-3.54-4.26s-4.16,2.2-4.16,5.37v10.25h-3V197.53c0-2.3-.65-4.34-3.45-4.34s-4.25,2.31-4.25,5.72v9.88h-3.06Z"/><path class="cls-3" d="M493.71,182.94h3.08v3.85h-3.08Zm0,8h3.08v17.85h-3.08Z"/><path class="cls-3" d="M506.19,203.68c.51,1.95,1.95,3.1,4.37,3.1,2.62,0,3.65-1.13,3.65-2.75s-.82-2.45-4.22-3.27c-5.11-1.24-6.17-2.8-6.17-5.23s1.86-5,6.44-5,6.49,2.67,6.73,5.16h-3c-.25-1.16-1.13-2.76-3.87-2.76-2.5,0-3.24,1.2-3.24,2.37,0,1.33.73,2,4,2.77,5.42,1.29,6.5,3.1,6.5,5.75,0,3.13-2.48,5.41-6.93,5.41-4.62,0-6.89-2.34-7.34-5.53Z"/><path class="cls-3" d="M525.37,200.42c0,3.63,1.85,6.21,4.88,6.21a4.11,4.11,0,0,0,4.31-2.76h3.1c-.7,2.29-2.62,5.34-7.51,5.34-5.61,0-7.9-4.56-7.9-9.16,0-5.31,2.67-9.54,8.1-9.54,5.76,0,7.65,4.62,7.65,8.43a14.06,14.06,0,0,1,0,1.48Zm9.5-2.17c0-2.94-1.51-5.3-4.56-5.3s-4.52,2.19-4.84,5.3Z"/></g></g></svg>