<?xml version="1.0" encoding="UTF-8"?>
<svg version="1.1" xmlns="http://www.w3.org/2000/svg" width="3350" height="893">
<path d="M0,0 L53,0 L85,3 L115,8 L145,15 L174,24 L195,32 L220,43 L245,56 L268,70 L288,84 L301,94 L314,105 L322,112 L332,121 L352,141 L359,149 L370,162 L385,182 L396,198 L409,219 L424,247 L435,272 L445,299 L453,325 L460,355 L465,386 L468,419 L468,470 L465,501 L460,530 L452,562 L442,592 L432,616 L418,645 L402,672 L392,687 L382,701 L371,715 L359,729 L350,739 L343,746 L336,754 L328,761 L321,768 L310,777 L297,788 L278,802 L263,812 L238,827 L211,841 L183,853 L147,865 L115,873 L86,878 L55,881 L4,881 L-28,878 L-63,872 L-91,865 L-122,855 L-144,854 L-336,851 L-351,847 L-352,845 L-316,840 L-192,824 L-190,823 L-211,810 L-212,809 L-408,807 L-431,806 L-444,802 L-442,800 L-264,777 L-256,777 L-261,772 L-277,757 L-295,739 L-302,731 L-314,717 L-326,701 L-338,684 L-351,663 L-363,641 L-376,614 L-388,583 L-396,557 L-403,528 L-408,499 L-411,470 L-412,450 L-412,425 L-410,394 L-406,364 L-400,335 L-393,310 L-385,286 L-375,262 L-363,237 L-351,215 L-340,198 L-326,178 L-315,164 L-304,151 L-295,141 L-283,128 L-276,121 L-268,114 L-257,104 L-246,95 L-226,80 L-205,66 L-181,52 L-164,43 L-137,31 L-110,21 L-82,13 L-56,7 L-23,2 Z M8,109 L-21,112 L-47,117 L-69,123 L-95,132 L-121,144 L-141,155 L-162,169 L-179,182 L-194,195 L-219,220 L-228,231 L-238,244 L-252,265 L-264,286 L-276,311 L-285,335 L-292,360 L-297,384 L-300,405 L-301,417 L-301,462 L-298,490 L-293,516 L-286,542 L-276,569 L-262,598 L-252,615 L-239,634 L-228,648 L-216,662 L-195,683 L-184,692 L-169,704 L-151,716 L-134,726 L-117,735 L-91,746 L-63,755 L-37,761 L-12,765 L13,767 L46,767 L77,764 L104,759 L130,752 L155,743 L179,732 L201,720 L219,708 L231,699 L242,690 L252,681 L260,674 L270,664 L277,656 L288,643 L301,625 L314,604 L328,577 L338,552 L345,531 L352,501 L356,473 L357,461 L357,417 L354,389 L349,363 L342,338 L335,318 L324,293 L314,274 L302,255 L292,241 L281,227 L270,215 L263,207 L254,198 L246,191 L233,180 L214,166 L195,154 L173,142 L150,132 L128,124 L98,116 L68,111 L46,109 Z " fill="#1F284D" transform="translate(444,1)"/>
<path d="M0,0 L476,0 L485,2 L491,7 L493,11 L493,25 L489,44 L486,74 L483,102 L479,118 L473,130 L466,138 L456,144 L440,148 L413,148 L372,144 L147,144 L139,147 L134,151 L129,163 L121,207 L120,214 L120,235 L123,243 L128,248 L138,252 L150,254 L165,255 L292,256 L393,256 L401,259 L406,265 L407,268 L407,280 L400,316 L394,351 L390,368 L384,380 L377,386 L366,389 L355,390 L150,390 L150,392 L134,392 L90,391 L88,408 L82,446 L76,481 L75,499 L77,509 L81,514 L90,517 L402,517 L411,520 L415,525 L416,527 L416,543 L408,587 L400,642 L396,652 L391,657 L385,660 L379,661 L-121,661 L-128,659 L-133,653 L-133,633 L-116,534 L-97,419 L-89,367 L-81,317 L-77,294 L-69,249 L-49,127 L-34,31 L-29,15 L-21,6 L-13,2 Z " fill="#E42320" transform="translate(2136,228)"/>
<path d="M0,0 L21,0 L33,3 L44,9 L53,18 L59,29 L63,40 L65,53 L67,527 L68,561 L71,589 L76,614 L83,637 L93,660 L104,679 L114,693 L125,706 L141,722 L155,733 L170,743 L195,756 L220,765 L246,771 L262,773 L287,774 L314,772 L336,768 L360,761 L383,751 L400,741 L414,731 L427,720 L445,702 L455,689 L465,674 L474,658 L484,634 L491,611 L495,590 L497,569 L497,546 L495,525 L490,501 L484,481 L476,463 L466,444 L454,427 L442,413 L429,400 L415,389 L397,377 L378,367 L355,358 L332,352 L305,348 L246,347 L230,344 L218,339 L209,332 L202,324 L197,314 L194,300 L194,290 L197,275 L203,263 L213,252 L224,245 L236,241 L242,240 L301,240 L329,242 L356,246 L382,252 L409,261 L432,271 L455,283 L474,295 L491,308 L504,319 L519,333 L531,346 L540,357 L554,376 L569,401 L581,425 L591,451 L599,478 L604,502 L608,533 L609,550 L609,576 L607,602 L603,627 L597,651 L588,678 L575,707 L565,725 L553,744 L540,761 L531,772 L519,785 L501,803 L490,812 L472,826 L450,840 L426,853 L400,864 L375,872 L349,878 L322,882 L310,883 L257,883 L224,879 L197,873 L171,865 L146,855 L130,847 L115,839 L96,827 L79,814 L66,803 L53,791 L44,782 L37,774 L24,758 L10,738 L-2,717 L-10,702 L-20,678 L-30,648 L-36,622 L-40,596 L-42,571 L-42,53 L-39,36 L-34,24 L-28,15 L-19,7 L-8,2 Z " fill="#1F284D" transform="translate(1401,0)"/>
<path d="M0,0 L12,1 L20,5 L26,13 L36,33 L48,55 L65,88 L77,110 L94,143 L105,163 L113,171 L121,175 L127,176 L136,173 L144,167 L154,157 L161,149 L169,141 L176,133 L184,125 L191,117 L199,109 L206,101 L215,92 L222,84 L230,76 L237,68 L245,60 L252,52 L260,44 L267,36 L279,23 L286,15 L292,8 L300,3 L306,1 L495,1 L493,5 L481,19 L470,33 L457,48 L448,59 L437,72 L428,83 L417,96 L408,107 L401,115 L397,117 L388,128 L376,141 L367,152 L356,164 L347,175 L336,187 L327,198 L315,211 L306,222 L295,234 L286,245 L274,258 L265,269 L260,275 L271,274 L320,273 L330,275 L338,279 L345,287 L349,297 L350,302 L350,316 L347,325 L338,335 L327,340 L315,343 L308,344 L284,344 L130,342 L-77,338 L-227,336 L-245,331 L-241,329 L-48,304 L-33,303 L-57,256 L-87,196 L-97,177 L-131,109 L-141,90 L-171,30 L-179,16 L-180,13 L-180,6 L-177,3 L-171,1 Z " fill="#E42320" transform="translate(2855,226)"/>
<path d="M0,0 L77,1 L151,1 L241,0 L255,2 L265,7 L273,15 L283,33 L298,60 L312,84 L327,111 L341,135 L349,149 L352,156 L365,180 L378,203 L389,221 L403,249 L417,273 L425,287 L425,290 L226,290 L218,286 L211,278 L203,260 L167,188 L157,169 L127,109 L115,88 L109,83 L104,85 L96,95 L83,110 L75,120 L66,131 L57,142 L48,153 L39,164 L30,175 L19,189 L5,207 L-9,226 L-20,239 L-37,256 L-53,268 L-69,277 L-84,284 L-105,290 L-122,293 L-136,294 L-166,294 L-270,291 L-274,288 L-274,282 L-257,265 L-250,257 L-235,241 L-224,229 L-212,216 L-201,204 L-189,191 L-178,179 L-169,168 L-159,157 L-150,146 L-141,136 L-132,125 L-122,114 L-113,103 L-111,101 L-119,100 L-161,99 L-238,98 L-271,97 L-274,87 L-313,83 L-316,81 L-314,80 L-237,77 L-167,74 L-114,70 L-91,67 L-79,64 L-67,50 L-55,36 L-42,21 L-35,13 L-25,6 L-14,2 Z " fill="#1F284D" transform="translate(2832,599)"/>
<path d="M0,0 L17,0 L44,2 L60,6 L71,12 L81,21 L87,29 L92,39 L94,48 L94,62 L91,73 L86,83 L77,93 L68,100 L56,105 L48,107 L39,108 L-7,109 L-32,111 L-57,116 L-77,123 L-98,134 L-110,143 L-120,152 L-127,159 L-137,173 L-145,187 L-153,208 L-158,231 L-160,256 L-161,592 L-164,607 L-169,619 L-178,631 L-189,639 L-199,643 L-211,645 L-227,644 L-241,639 L-252,631 L-260,621 L-265,611 L-269,597 L-270,589 L-271,437 L-271,337 L-270,251 L-268,224 L-264,199 L-257,173 L-248,149 L-237,127 L-225,108 L-214,94 L-203,82 L-197,75 L-189,68 L-175,56 L-159,45 L-144,36 L-128,28 L-107,19 L-82,11 L-55,5 L-33,2 Z " fill="#1F284D" transform="translate(1236,240)"/>
<path d="M0,0 L2,0 L14,22 L24,45 L33,73 L39,100 L42,123 L43,139 L43,159 L41,183 L37,206 L31,228 L23,250 L11,275 L0,293 L-10,307 L-21,321 L-35,336 L-52,353 L-63,362 L-78,374 L-105,392 L-115,398 L-118,397 L-104,386 L-93,377 L-79,365 L-71,357 L-63,350 L-56,343 L-49,335 L-39,324 L-26,307 L-14,290 L-2,269 L9,246 L18,221 L25,193 L28,174 L30,144 L29,115 L26,90 L21,64 L12,32 L2,6 Z " fill="#E42320" transform="translate(686,325)"/>
<path d="M0,0 L4,1 L20,11 L37,25 L47,34 L58,44 L65,52 L75,63 L87,79 L97,94 L106,110 L114,126 L122,146 L129,169 L134,194 L136,211 L136,254 L133,278 L128,302 L120,329 L109,357 L94,387 L82,406 L80,407 L82,401 L94,373 L103,348 L111,322 L117,296 L121,271 L122,259 L122,215 L119,192 L113,165 L104,138 L95,118 L83,95 L69,74 L57,58 L46,45 L35,33 L16,14 L5,5 Z " fill="#E42320" transform="translate(634,222)"/>
</svg>
